<svg xmlns="http://www.w3.org/2000/svg" viewBox="0 0 128 128">
  <!-- Outer gold ring -->
  <circle cx="64" cy="64" r="62" fill="#f0d000" stroke="#1a1a1a" stroke-width="4"/>
  <!-- Black band -->
  <circle cx="64" cy="64" r="52" fill="#1a1a1a"/>
  <!-- Inner gold ring -->
  <circle cx="64" cy="64" r="22" fill="#c62828" stroke="#8b1a1a" stroke-width="2"/>
  <!-- Gold dots around the black band -->
  <g fill="#f0d000">
    <circle cx="64" cy="16" r="5.5"/>
    <circle cx="80" cy="17.5" r="5.5"/>
    <circle cx="94" cy="23" r="5.5"/>
    <circle cx="105" cy="33" r="5.5"/>
    <circle cx="111" cy="47" r="5.5"/>
    <circle cx="112" cy="64" r="5.5"/>
    <circle cx="111" cy="81" r="5.5"/>
    <circle cx="105" cy="95" r="5.5"/>
    <circle cx="94" cy="105" r="5.5"/>
    <circle cx="80" cy="110.5" r="5.5"/>
    <circle cx="64" cy="112" r="5.5"/>
    <circle cx="48" cy="110.5" r="5.5"/>
    <circle cx="34" cy="105" r="5.5"/>
    <circle cx="23" cy="95" r="5.5"/>
    <circle cx="17" cy="81" r="5.5"/>
    <circle cx="16" cy="64" r="5.5"/>
    <circle cx="17" cy="47" r="5.5"/>
    <circle cx="23" cy="33" r="5.5"/>
    <circle cx="34" cy="23" r="5.5"/>
    <circle cx="48" cy="17.5" r="5.5"/>
  </g>
  <!-- Zigzag triangles inner ring -->
  <g fill="#f0d000">
    <polygon points="64,28 68,35 60,35"/>
    <polygon points="76,30 78.5,37.5 72,36"/>
    <polygon points="86,35 87,43 80,40"/>
    <polygon points="94,43 93,51 87,46"/>
    <polygon points="99,53 96,60 92,54"/>
    <polygon points="100,64 96,69 95,62"/>
    <polygon points="99,75 95,72 96,68"/>
    <polygon points="94,85 87,82 93,77"/>
    <polygon points="86,93 80,88 87,85"/>
    <polygon points="76,98 72,92 78.5,90.5"/>
    <polygon points="64,100 60,93 68,93"/>
    <polygon points="52,98 49.5,90.5 56,92"/>
    <polygon points="42,93 48,88 41,85"/>
    <polygon points="34,85 41,82 35,77"/>
    <polygon points="29,75 33,72 32,68"/>
    <polygon points="28,64 32,69 33,62"/>
    <polygon points="29,53 32,60 36,54"/>
    <polygon points="34,43 41,46 35,51"/>
    <polygon points="42,35 41,43 48,40"/>
    <polygon points="52,30 56,36 49.5,37.5"/>
  </g>
  <!-- Red center face (simplified) -->
  <!-- Eyes -->
  <ellipse cx="58" cy="60" rx="3" ry="2" fill="#1a1a1a" opacity="0.4"/>
  <ellipse cx="70" cy="60" rx="3" ry="2" fill="#1a1a1a" opacity="0.4"/>
  <!-- Nose -->
  <line x1="64" y1="62" x2="64" y2="67" stroke="#1a1a1a" stroke-width="0.8" opacity="0.3"/>
  <!-- Mouth -->
  <path d="M59 71 Q64 74 69 71" fill="none" stroke="#1a1a1a" stroke-width="1" opacity="0.3"/>
</svg>
